%TF.GenerationSoftware,KiCad,Pcbnew,7.0.11-7.0.11~ubuntu22.04.1*%
%TF.CreationDate,2024-11-24T08:43:31+00:00*%
%TF.ProjectId,PicoController,5069636f-436f-46e7-9472-6f6c6c65722e,rev?*%
%TF.SameCoordinates,Original*%
%TF.FileFunction,Soldermask,Bot*%
%TF.FilePolarity,Negative*%
%FSLAX46Y46*%
G04 Gerber Fmt 4.6, Leading zero omitted, Abs format (unit mm)*
G04 Created by KiCad (PCBNEW 7.0.11-7.0.11~ubuntu22.04.1) date 2024-11-24 08:43:31*
%MOMM*%
%LPD*%
G01*
G04 APERTURE LIST*
%ADD10O,1.800000X1.800000*%
%ADD11O,1.500000X1.500000*%
%ADD12O,1.700000X1.700000*%
%ADD13R,1.700000X1.700000*%
%ADD14C,1.700000*%
G04 APERTURE END LIST*
D10*
%TO.C,Pico1*%
X141713800Y-115186000D03*
D11*
X141413800Y-112156000D03*
X136563800Y-112156000D03*
D10*
X136263800Y-115186000D03*
D12*
X147878800Y-115316000D03*
X147878800Y-112776000D03*
D13*
X147878800Y-110236000D03*
D12*
X147878800Y-107696000D03*
X147878800Y-105156000D03*
X147878800Y-102616000D03*
X147878800Y-100076000D03*
D13*
X147878800Y-97536000D03*
D12*
X147878800Y-94996000D03*
X147878800Y-92456000D03*
X147878800Y-89916000D03*
X147878800Y-87376000D03*
D13*
X147878800Y-84836000D03*
D12*
X147878800Y-82296000D03*
X147878800Y-79756000D03*
X147878800Y-77216000D03*
X147878800Y-74676000D03*
D13*
X147878800Y-72136000D03*
D12*
X147878800Y-69596000D03*
X147878800Y-67056000D03*
X130098800Y-67056000D03*
X130098800Y-69596000D03*
D13*
X130098800Y-72136000D03*
D12*
X130098800Y-74676000D03*
X130098800Y-77216000D03*
X130098800Y-79756000D03*
X130098800Y-82296000D03*
D13*
X130098800Y-84836000D03*
D12*
X130098800Y-87376000D03*
X130098800Y-89916000D03*
X130098800Y-92456000D03*
X130098800Y-94996000D03*
D13*
X130098800Y-97536000D03*
D12*
X130098800Y-100076000D03*
X130098800Y-102616000D03*
X130098800Y-105156000D03*
X130098800Y-107696000D03*
D13*
X130098800Y-110236000D03*
D12*
X130098800Y-112776000D03*
X130098800Y-115316000D03*
X141528800Y-67286000D03*
D13*
X138988800Y-67286000D03*
D12*
X136448800Y-67286000D03*
%TD*%
D13*
%TO.C,SW1*%
X144424400Y-105008600D03*
D12*
X144424400Y-102468600D03*
%TD*%
D13*
%TO.C,JOY1*%
X135026400Y-76809600D03*
D12*
X137566400Y-76809600D03*
X140106400Y-76809600D03*
X142646400Y-76809600D03*
%TD*%
D14*
%TO.C,RCWL-1*%
X143993100Y-82150300D03*
X141453100Y-82150300D03*
X138913100Y-82150300D03*
X136373100Y-82150300D03*
X133833100Y-82150300D03*
%TD*%
D13*
%TO.C,JOUT1*%
X142646400Y-71526400D03*
D12*
X140106400Y-71526400D03*
X137566400Y-71526400D03*
X135026400Y-71526400D03*
%TD*%
D13*
%TO.C,JIN1*%
X142900400Y-90728800D03*
D12*
X140360400Y-90728800D03*
X137820400Y-90728800D03*
X135280400Y-90728800D03*
%TD*%
M02*
