%TF.GenerationSoftware,KiCad,Pcbnew,7.0.11-7.0.11~ubuntu22.04.1*%
%TF.CreationDate,2024-11-24T08:43:31+00:00*%
%TF.ProjectId,PicoController,5069636f-436f-46e7-9472-6f6c6c65722e,rev?*%
%TF.SameCoordinates,Original*%
%TF.FileFunction,Legend,Bot*%
%TF.FilePolarity,Positive*%
%FSLAX46Y46*%
G04 Gerber Fmt 4.6, Leading zero omitted, Abs format (unit mm)*
G04 Created by KiCad (PCBNEW 7.0.11-7.0.11~ubuntu22.04.1) date 2024-11-24 08:43:31*
%MOMM*%
%LPD*%
G01*
G04 APERTURE LIST*
%ADD10C,0.100000*%
%ADD11C,0.150000*%
%ADD12C,0.120000*%
G04 APERTURE END LIST*
D10*
X143510915Y-69087466D02*
X142749011Y-69087466D01*
X143129963Y-69468419D02*
X143129963Y-68706514D01*
X143053715Y-78790266D02*
X142291811Y-78790266D01*
X135230515Y-69239866D02*
X134468611Y-69239866D01*
X140462915Y-78790266D02*
X139701011Y-78790266D01*
X140081963Y-79171219D02*
X140081963Y-78409314D01*
X141729734Y-83666133D02*
X141120211Y-83666133D01*
X141424972Y-83970895D02*
X141424972Y-83361371D01*
X135535315Y-93014266D02*
X134773411Y-93014266D01*
X143152134Y-93013333D02*
X142542611Y-93013333D01*
X142847372Y-93318095D02*
X142847372Y-92708571D01*
X136754515Y-83514666D02*
X135992611Y-83514666D01*
D11*
X145757732Y-107745800D02*
X145614875Y-107793419D01*
X145614875Y-107793419D02*
X145376780Y-107793419D01*
X145376780Y-107793419D02*
X145281542Y-107745800D01*
X145281542Y-107745800D02*
X145233923Y-107698180D01*
X145233923Y-107698180D02*
X145186304Y-107602942D01*
X145186304Y-107602942D02*
X145186304Y-107507704D01*
X145186304Y-107507704D02*
X145233923Y-107412466D01*
X145233923Y-107412466D02*
X145281542Y-107364847D01*
X145281542Y-107364847D02*
X145376780Y-107317228D01*
X145376780Y-107317228D02*
X145567256Y-107269609D01*
X145567256Y-107269609D02*
X145662494Y-107221990D01*
X145662494Y-107221990D02*
X145710113Y-107174371D01*
X145710113Y-107174371D02*
X145757732Y-107079133D01*
X145757732Y-107079133D02*
X145757732Y-106983895D01*
X145757732Y-106983895D02*
X145710113Y-106888657D01*
X145710113Y-106888657D02*
X145662494Y-106841038D01*
X145662494Y-106841038D02*
X145567256Y-106793419D01*
X145567256Y-106793419D02*
X145329161Y-106793419D01*
X145329161Y-106793419D02*
X145186304Y-106841038D01*
X144852970Y-106793419D02*
X144614875Y-107793419D01*
X144614875Y-107793419D02*
X144424399Y-107079133D01*
X144424399Y-107079133D02*
X144233923Y-107793419D01*
X144233923Y-107793419D02*
X143995828Y-106793419D01*
X143091066Y-107793419D02*
X143662494Y-107793419D01*
X143376780Y-107793419D02*
X143376780Y-106793419D01*
X143376780Y-106793419D02*
X143472018Y-106936276D01*
X143472018Y-106936276D02*
X143567256Y-107031514D01*
X143567256Y-107031514D02*
X143662494Y-107079133D01*
X139817314Y-79312419D02*
X139817314Y-80026704D01*
X139817314Y-80026704D02*
X139864933Y-80169561D01*
X139864933Y-80169561D02*
X139960171Y-80264800D01*
X139960171Y-80264800D02*
X140103028Y-80312419D01*
X140103028Y-80312419D02*
X140198266Y-80312419D01*
X139150647Y-79312419D02*
X138960171Y-79312419D01*
X138960171Y-79312419D02*
X138864933Y-79360038D01*
X138864933Y-79360038D02*
X138769695Y-79455276D01*
X138769695Y-79455276D02*
X138722076Y-79645752D01*
X138722076Y-79645752D02*
X138722076Y-79979085D01*
X138722076Y-79979085D02*
X138769695Y-80169561D01*
X138769695Y-80169561D02*
X138864933Y-80264800D01*
X138864933Y-80264800D02*
X138960171Y-80312419D01*
X138960171Y-80312419D02*
X139150647Y-80312419D01*
X139150647Y-80312419D02*
X139245885Y-80264800D01*
X139245885Y-80264800D02*
X139341123Y-80169561D01*
X139341123Y-80169561D02*
X139388742Y-79979085D01*
X139388742Y-79979085D02*
X139388742Y-79645752D01*
X139388742Y-79645752D02*
X139341123Y-79455276D01*
X139341123Y-79455276D02*
X139245885Y-79360038D01*
X139245885Y-79360038D02*
X139150647Y-79312419D01*
X138103028Y-79836228D02*
X138103028Y-80312419D01*
X138436361Y-79312419D02*
X138103028Y-79836228D01*
X138103028Y-79836228D02*
X137769695Y-79312419D01*
X136912552Y-80312419D02*
X137483980Y-80312419D01*
X137198266Y-80312419D02*
X137198266Y-79312419D01*
X137198266Y-79312419D02*
X137293504Y-79455276D01*
X137293504Y-79455276D02*
X137388742Y-79550514D01*
X137388742Y-79550514D02*
X137483980Y-79598133D01*
D10*
X136523695Y-84327780D02*
X136190362Y-84803971D01*
X135952267Y-84327780D02*
X135952267Y-85327780D01*
X135952267Y-85327780D02*
X136333219Y-85327780D01*
X136333219Y-85327780D02*
X136428457Y-85280161D01*
X136428457Y-85280161D02*
X136476076Y-85232542D01*
X136476076Y-85232542D02*
X136523695Y-85137304D01*
X136523695Y-85137304D02*
X136523695Y-84994447D01*
X136523695Y-84994447D02*
X136476076Y-84899209D01*
X136476076Y-84899209D02*
X136428457Y-84851590D01*
X136428457Y-84851590D02*
X136333219Y-84803971D01*
X136333219Y-84803971D02*
X135952267Y-84803971D01*
X137523695Y-84423019D02*
X137476076Y-84375400D01*
X137476076Y-84375400D02*
X137333219Y-84327780D01*
X137333219Y-84327780D02*
X137237981Y-84327780D01*
X137237981Y-84327780D02*
X137095124Y-84375400D01*
X137095124Y-84375400D02*
X136999886Y-84470638D01*
X136999886Y-84470638D02*
X136952267Y-84565876D01*
X136952267Y-84565876D02*
X136904648Y-84756352D01*
X136904648Y-84756352D02*
X136904648Y-84899209D01*
X136904648Y-84899209D02*
X136952267Y-85089685D01*
X136952267Y-85089685D02*
X136999886Y-85184923D01*
X136999886Y-85184923D02*
X137095124Y-85280161D01*
X137095124Y-85280161D02*
X137237981Y-85327780D01*
X137237981Y-85327780D02*
X137333219Y-85327780D01*
X137333219Y-85327780D02*
X137476076Y-85280161D01*
X137476076Y-85280161D02*
X137523695Y-85232542D01*
X137857029Y-85327780D02*
X138095124Y-84327780D01*
X138095124Y-84327780D02*
X138285600Y-85042066D01*
X138285600Y-85042066D02*
X138476076Y-84327780D01*
X138476076Y-84327780D02*
X138714172Y-85327780D01*
X139571314Y-84327780D02*
X139095124Y-84327780D01*
X139095124Y-84327780D02*
X139095124Y-85327780D01*
X139904648Y-84708733D02*
X140666553Y-84708733D01*
X141666552Y-84327780D02*
X141095124Y-84327780D01*
X141380838Y-84327780D02*
X141380838Y-85327780D01*
X141380838Y-85327780D02*
X141285600Y-85184923D01*
X141285600Y-85184923D02*
X141190362Y-85089685D01*
X141190362Y-85089685D02*
X141095124Y-85042066D01*
D11*
X140293504Y-73470419D02*
X140293504Y-74184704D01*
X140293504Y-74184704D02*
X140341123Y-74327561D01*
X140341123Y-74327561D02*
X140436361Y-74422800D01*
X140436361Y-74422800D02*
X140579218Y-74470419D01*
X140579218Y-74470419D02*
X140674456Y-74470419D01*
X139626837Y-73470419D02*
X139436361Y-73470419D01*
X139436361Y-73470419D02*
X139341123Y-73518038D01*
X139341123Y-73518038D02*
X139245885Y-73613276D01*
X139245885Y-73613276D02*
X139198266Y-73803752D01*
X139198266Y-73803752D02*
X139198266Y-74137085D01*
X139198266Y-74137085D02*
X139245885Y-74327561D01*
X139245885Y-74327561D02*
X139341123Y-74422800D01*
X139341123Y-74422800D02*
X139436361Y-74470419D01*
X139436361Y-74470419D02*
X139626837Y-74470419D01*
X139626837Y-74470419D02*
X139722075Y-74422800D01*
X139722075Y-74422800D02*
X139817313Y-74327561D01*
X139817313Y-74327561D02*
X139864932Y-74137085D01*
X139864932Y-74137085D02*
X139864932Y-73803752D01*
X139864932Y-73803752D02*
X139817313Y-73613276D01*
X139817313Y-73613276D02*
X139722075Y-73518038D01*
X139722075Y-73518038D02*
X139626837Y-73470419D01*
X138769694Y-73470419D02*
X138769694Y-74279942D01*
X138769694Y-74279942D02*
X138722075Y-74375180D01*
X138722075Y-74375180D02*
X138674456Y-74422800D01*
X138674456Y-74422800D02*
X138579218Y-74470419D01*
X138579218Y-74470419D02*
X138388742Y-74470419D01*
X138388742Y-74470419D02*
X138293504Y-74422800D01*
X138293504Y-74422800D02*
X138245885Y-74375180D01*
X138245885Y-74375180D02*
X138198266Y-74279942D01*
X138198266Y-74279942D02*
X138198266Y-73470419D01*
X137864932Y-73470419D02*
X137293504Y-73470419D01*
X137579218Y-74470419D02*
X137579218Y-73470419D01*
X136436361Y-74470419D02*
X137007789Y-74470419D01*
X136722075Y-74470419D02*
X136722075Y-73470419D01*
X136722075Y-73470419D02*
X136817313Y-73613276D01*
X136817313Y-73613276D02*
X136912551Y-73708514D01*
X136912551Y-73708514D02*
X137007789Y-73756133D01*
X139779237Y-93282419D02*
X139779237Y-93996704D01*
X139779237Y-93996704D02*
X139826856Y-94139561D01*
X139826856Y-94139561D02*
X139922094Y-94234800D01*
X139922094Y-94234800D02*
X140064951Y-94282419D01*
X140064951Y-94282419D02*
X140160189Y-94282419D01*
X139303046Y-94282419D02*
X139303046Y-93282419D01*
X138826856Y-94282419D02*
X138826856Y-93282419D01*
X138826856Y-93282419D02*
X138255428Y-94282419D01*
X138255428Y-94282419D02*
X138255428Y-93282419D01*
X137255428Y-94282419D02*
X137826856Y-94282419D01*
X137541142Y-94282419D02*
X137541142Y-93282419D01*
X137541142Y-93282419D02*
X137636380Y-93425276D01*
X137636380Y-93425276D02*
X137731618Y-93520514D01*
X137731618Y-93520514D02*
X137826856Y-93568133D01*
D12*
%TO.C,SW1*%
X143094400Y-101138600D02*
X145754400Y-101138600D01*
X143094400Y-103738600D02*
X143094400Y-101138600D01*
X143094400Y-103738600D02*
X145754400Y-103738600D01*
X143094400Y-105008600D02*
X143094400Y-106338600D01*
X143094400Y-106338600D02*
X144424400Y-106338600D01*
X145754400Y-103738600D02*
X145754400Y-101138600D01*
%TO.C,JOY1*%
X143976400Y-75479600D02*
X143976400Y-78139600D01*
X136296400Y-75479600D02*
X143976400Y-75479600D01*
X136296400Y-75479600D02*
X136296400Y-78139600D01*
X135026400Y-75479600D02*
X133696400Y-75479600D01*
X133696400Y-75479600D02*
X133696400Y-76809600D01*
X136296400Y-78139600D02*
X143976400Y-78139600D01*
%TO.C,JOUT1*%
X133696400Y-72856400D02*
X133696400Y-70196400D01*
X141376400Y-72856400D02*
X133696400Y-72856400D01*
X141376400Y-72856400D02*
X141376400Y-70196400D01*
X142646400Y-72856400D02*
X143976400Y-72856400D01*
X143976400Y-72856400D02*
X143976400Y-71526400D01*
X141376400Y-70196400D02*
X133696400Y-70196400D01*
%TO.C,JIN1*%
X133950400Y-92058800D02*
X133950400Y-89398800D01*
X141630400Y-92058800D02*
X133950400Y-92058800D01*
X141630400Y-92058800D02*
X141630400Y-89398800D01*
X142900400Y-92058800D02*
X144230400Y-92058800D01*
X144230400Y-92058800D02*
X144230400Y-90728800D01*
X141630400Y-89398800D02*
X133950400Y-89398800D01*
%TD*%
M02*
