M48
; DRILL file {KiCad 7.0.11-7.0.11~ubuntu22.04.1} date Sun 24 Nov 2024 08:43:36 GMT
; FORMAT={-:-/ absolute / inch / decimal}
; #@! TF.CreationDate,2024-11-24T08:43:36+00:00
; #@! TF.GenerationSoftware,Kicad,Pcbnew,7.0.11-7.0.11~ubuntu22.04.1
; #@! TF.FileFunction,Plated,1,2,PTH
FMAT,2
INCH
; #@! TA.AperFunction,Plated,PTH,ComponentDrill
T1C0.0394
; #@! TA.AperFunction,Plated,PTH,ComponentDrill
T2C0.0402
%
G90
G05
T1
X5.269Y-3.2343
X5.316Y-2.816
X5.316Y-3.024
X5.326Y-3.572
X5.369Y-3.2343
X5.416Y-2.816
X5.416Y-3.024
X5.426Y-3.572
X5.469Y-3.2343
X5.516Y-2.816
X5.516Y-3.024
X5.526Y-3.572
X5.569Y-3.2343
X5.616Y-2.816
X5.616Y-3.024
X5.626Y-3.572
X5.669Y-3.2343
X5.686Y-4.0342
X5.686Y-4.1342
T2
X5.122Y-2.64
X5.122Y-2.74
X5.122Y-2.84
X5.122Y-2.94
X5.122Y-3.04
X5.122Y-3.14
X5.122Y-3.24
X5.122Y-3.34
X5.122Y-3.44
X5.122Y-3.54
X5.122Y-3.64
X5.122Y-3.74
X5.122Y-3.84
X5.122Y-3.94
X5.122Y-4.04
X5.122Y-4.14
X5.122Y-4.24
X5.122Y-4.34
X5.122Y-4.44
X5.122Y-4.54
X5.372Y-2.6491
X5.472Y-2.6491
X5.572Y-2.6491
X5.822Y-2.64
X5.822Y-2.74
X5.822Y-2.84
X5.822Y-2.94
X5.822Y-3.04
X5.822Y-3.14
X5.822Y-3.24
X5.822Y-3.34
X5.822Y-3.44
X5.822Y-3.54
X5.822Y-3.64
X5.822Y-3.74
X5.822Y-3.84
X5.822Y-3.94
X5.822Y-4.04
X5.822Y-4.14
X5.822Y-4.24
X5.822Y-4.34
X5.822Y-4.44
X5.822Y-4.54
M30
