%TF.GenerationSoftware,KiCad,Pcbnew,7.0.11-7.0.11~ubuntu22.04.1*%
%TF.CreationDate,2024-11-24T08:43:31+00:00*%
%TF.ProjectId,PicoController,5069636f-436f-46e7-9472-6f6c6c65722e,rev?*%
%TF.SameCoordinates,Original*%
%TF.FileFunction,Copper,L1,Top*%
%TF.FilePolarity,Positive*%
%FSLAX46Y46*%
G04 Gerber Fmt 4.6, Leading zero omitted, Abs format (unit mm)*
G04 Created by KiCad (PCBNEW 7.0.11-7.0.11~ubuntu22.04.1) date 2024-11-24 08:43:31*
%MOMM*%
%LPD*%
G01*
G04 APERTURE LIST*
%TA.AperFunction,ComponentPad*%
%ADD10O,1.700000X1.700000*%
%TD*%
%TA.AperFunction,SMDPad,CuDef*%
%ADD11R,3.500000X1.700000*%
%TD*%
%TA.AperFunction,ComponentPad*%
%ADD12R,1.700000X1.700000*%
%TD*%
%TA.AperFunction,SMDPad,CuDef*%
%ADD13R,1.700000X3.500000*%
%TD*%
%TA.AperFunction,ComponentPad*%
%ADD14C,1.700000*%
%TD*%
%TA.AperFunction,Conductor*%
%ADD15C,0.200000*%
%TD*%
G04 APERTURE END LIST*
D10*
%TO.P,Pico1,1,GPIO0*%
%TO.N,Net-(Pico1-GPIO0)*%
X147878800Y-115316000D03*
D11*
X148778800Y-115316000D03*
D10*
%TO.P,Pico1,2,GPIO1*%
%TO.N,Net-(JOUT1-Pin_3)*%
X147878800Y-112776000D03*
D11*
X148778800Y-112776000D03*
D12*
%TO.P,Pico1,3,GND*%
%TO.N,Net-(SW1-Pin_1)*%
X147878800Y-110236000D03*
D11*
X148778800Y-110236000D03*
D10*
%TO.P,Pico1,4,GPIO2*%
%TO.N,Net-(Pico1-GPIO2)*%
X147878800Y-107696000D03*
D11*
X148778800Y-107696000D03*
D10*
%TO.P,Pico1,5,GPIO3*%
%TO.N,unconnected-(Pico1-GPIO3-Pad5)*%
X147878800Y-105156000D03*
D11*
X148778800Y-105156000D03*
D10*
%TO.P,Pico1,6,GPIO4*%
%TO.N,unconnected-(Pico1-GPIO4-Pad6)*%
X147878800Y-102616000D03*
D11*
X148778800Y-102616000D03*
D10*
%TO.P,Pico1,7,GPIO5*%
%TO.N,unconnected-(Pico1-GPIO5-Pad7)*%
X147878800Y-100076000D03*
D11*
X148778800Y-100076000D03*
D12*
%TO.P,Pico1,8,GND*%
%TO.N,unconnected-(Pico1-GND-Pad8)*%
X147878800Y-97536000D03*
D11*
X148778800Y-97536000D03*
D10*
%TO.P,Pico1,9,GPIO6*%
%TO.N,unconnected-(Pico1-GPIO6-Pad9)*%
X147878800Y-94996000D03*
D11*
X148778800Y-94996000D03*
D10*
%TO.P,Pico1,10,GPIO7*%
%TO.N,unconnected-(Pico1-GPIO7-Pad10)*%
X147878800Y-92456000D03*
D11*
X148778800Y-92456000D03*
D10*
%TO.P,Pico1,11,GPIO8*%
%TO.N,unconnected-(Pico1-GPIO8-Pad11)*%
X147878800Y-89916000D03*
D11*
X148778800Y-89916000D03*
D10*
%TO.P,Pico1,12,GPIO9*%
%TO.N,unconnected-(Pico1-GPIO9-Pad12)*%
X147878800Y-87376000D03*
D11*
X148778800Y-87376000D03*
D12*
%TO.P,Pico1,13,GND*%
%TO.N,unconnected-(Pico1-GND-Pad13)*%
X147878800Y-84836000D03*
D11*
X148778800Y-84836000D03*
D10*
%TO.P,Pico1,14,GPIO10*%
%TO.N,unconnected-(Pico1-GPIO10-Pad14)*%
X147878800Y-82296000D03*
D11*
X148778800Y-82296000D03*
D10*
%TO.P,Pico1,15,GPIO11*%
%TO.N,unconnected-(Pico1-GPIO11-Pad15)*%
X147878800Y-79756000D03*
D11*
X148778800Y-79756000D03*
D10*
%TO.P,Pico1,16,GPIO12*%
%TO.N,unconnected-(Pico1-GPIO12-Pad16)*%
X147878800Y-77216000D03*
D11*
X148778800Y-77216000D03*
D10*
%TO.P,Pico1,17,GPIO13*%
%TO.N,unconnected-(Pico1-GPIO13-Pad17)*%
X147878800Y-74676000D03*
D11*
X148778800Y-74676000D03*
D12*
%TO.P,Pico1,18,GND*%
%TO.N,unconnected-(Pico1-GND-Pad18)*%
X147878800Y-72136000D03*
D11*
X148778800Y-72136000D03*
D10*
%TO.P,Pico1,19,GPIO14*%
%TO.N,unconnected-(Pico1-GPIO14-Pad19)*%
X147878800Y-69596000D03*
D11*
X148778800Y-69596000D03*
D10*
%TO.P,Pico1,20,GPIO15*%
%TO.N,unconnected-(Pico1-GPIO15-Pad20)*%
X147878800Y-67056000D03*
D11*
X148778800Y-67056000D03*
D10*
%TO.P,Pico1,21,GPIO16*%
%TO.N,unconnected-(Pico1-GPIO16-Pad21)*%
X130098800Y-67056000D03*
D11*
X129198800Y-67056000D03*
D10*
%TO.P,Pico1,22,GPIO17*%
%TO.N,unconnected-(Pico1-GPIO17-Pad22)*%
X130098800Y-69596000D03*
D11*
X129198800Y-69596000D03*
D12*
%TO.P,Pico1,23,GND*%
%TO.N,unconnected-(Pico1-GND-Pad23)*%
X130098800Y-72136000D03*
D11*
X129198800Y-72136000D03*
D10*
%TO.P,Pico1,24,GPIO18*%
%TO.N,unconnected-(Pico1-GPIO18-Pad24)*%
X130098800Y-74676000D03*
D11*
X129198800Y-74676000D03*
D10*
%TO.P,Pico1,25,GPIO19*%
%TO.N,unconnected-(Pico1-GPIO19-Pad25)*%
X130098800Y-77216000D03*
D11*
X129198800Y-77216000D03*
D10*
%TO.P,Pico1,26,GPIO20*%
%TO.N,unconnected-(Pico1-GPIO20-Pad26)*%
X130098800Y-79756000D03*
D11*
X129198800Y-79756000D03*
D10*
%TO.P,Pico1,27,GPIO21*%
%TO.N,unconnected-(Pico1-GPIO21-Pad27)*%
X130098800Y-82296000D03*
D11*
X129198800Y-82296000D03*
D12*
%TO.P,Pico1,28,GND*%
%TO.N,unconnected-(Pico1-GND-Pad28)*%
X130098800Y-84836000D03*
D11*
X129198800Y-84836000D03*
D10*
%TO.P,Pico1,29,GPIO22*%
%TO.N,unconnected-(Pico1-GPIO22-Pad29)*%
X130098800Y-87376000D03*
D11*
X129198800Y-87376000D03*
D10*
%TO.P,Pico1,30,RUN*%
%TO.N,unconnected-(Pico1-RUN-Pad30)*%
X130098800Y-89916000D03*
D11*
X129198800Y-89916000D03*
D10*
%TO.P,Pico1,31,GPIO26_ADC0*%
%TO.N,Net-(JOY1-Pin_2)*%
X130098800Y-92456000D03*
D11*
X129198800Y-92456000D03*
D10*
%TO.P,Pico1,32,GPIO27_ADC1*%
%TO.N,Net-(JOY1-Pin_1)*%
X130098800Y-94996000D03*
D11*
X129198800Y-94996000D03*
D12*
%TO.P,Pico1,33,AGND*%
%TO.N,unconnected-(Pico1-AGND-Pad33)*%
X130098800Y-97536000D03*
D11*
X129198800Y-97536000D03*
D10*
%TO.P,Pico1,34,GPIO28_ADC2*%
%TO.N,unconnected-(Pico1-GPIO28_ADC2-Pad34)*%
X130098800Y-100076000D03*
D11*
X129198800Y-100076000D03*
D10*
%TO.P,Pico1,35,ADC_VREF*%
%TO.N,unconnected-(Pico1-ADC_VREF-Pad35)*%
X130098800Y-102616000D03*
D11*
X129198800Y-102616000D03*
D10*
%TO.P,Pico1,36,3V3*%
%TO.N,unconnected-(Pico1-3V3-Pad36)*%
X130098800Y-105156000D03*
D11*
X129198800Y-105156000D03*
D10*
%TO.P,Pico1,37,3V3_EN*%
%TO.N,unconnected-(Pico1-3V3_EN-Pad37)*%
X130098800Y-107696000D03*
D11*
X129198800Y-107696000D03*
D12*
%TO.P,Pico1,38,GND*%
%TO.N,unconnected-(Pico1-GND-Pad38)*%
X130098800Y-110236000D03*
D11*
X129198800Y-110236000D03*
D10*
%TO.P,Pico1,39,VSYS*%
%TO.N,+5V*%
X130098800Y-112776000D03*
D11*
X129198800Y-112776000D03*
D10*
%TO.P,Pico1,40,VBUS*%
%TO.N,unconnected-(Pico1-VBUS-Pad40)*%
X130098800Y-115316000D03*
D11*
X129198800Y-115316000D03*
D10*
%TO.P,Pico1,41,SWCLK*%
%TO.N,unconnected-(Pico1-SWCLK-Pad41)*%
X141528800Y-67286000D03*
D13*
X141528800Y-66386000D03*
D12*
%TO.P,Pico1,42,GND*%
%TO.N,unconnected-(Pico1-GND-Pad42)*%
X138988800Y-67286000D03*
D13*
X138988800Y-66386000D03*
D10*
%TO.P,Pico1,43,SWDIO*%
%TO.N,unconnected-(Pico1-SWDIO-Pad43)*%
X136448800Y-67286000D03*
D13*
X136448800Y-66386000D03*
%TD*%
D12*
%TO.P,SW1,1,Pin_1*%
%TO.N,Net-(SW1-Pin_1)*%
X144424400Y-105008600D03*
D10*
%TO.P,SW1,2,Pin_2*%
%TO.N,Net-(Pico1-GPIO2)*%
X144424400Y-102468600D03*
%TD*%
D12*
%TO.P,JOY1,1,Pin_1*%
%TO.N,Net-(JOY1-Pin_1)*%
X135026400Y-76809600D03*
D10*
%TO.P,JOY1,2,Pin_2*%
%TO.N,Net-(JOY1-Pin_2)*%
X137566400Y-76809600D03*
%TO.P,JOY1,3,Pin_3*%
%TO.N,+3V3*%
X140106400Y-76809600D03*
%TO.P,JOY1,4,Pin_4*%
%TO.N,GND*%
X142646400Y-76809600D03*
%TD*%
D14*
%TO.P,RCWL-1,1,CDS*%
%TO.N,unconnected-(RCWL-1-CDS-Pad1)*%
X143993100Y-82150300D03*
%TO.P,RCWL-1,2,VCC*%
%TO.N,+5V*%
X141453100Y-82150300D03*
%TO.P,RCWL-1,3,OUT*%
%TO.N,Net-(Pico1-GPIO0)*%
X138913100Y-82150300D03*
%TO.P,RCWL-1,4,GND*%
%TO.N,GND*%
X136373100Y-82150300D03*
%TO.P,RCWL-1,5,3V3_OUT*%
%TO.N,+3V3*%
X133833100Y-82150300D03*
%TD*%
D12*
%TO.P,JOUT1,1,Pin_1*%
%TO.N,+5V*%
X142646400Y-71526400D03*
D10*
%TO.P,JOUT1,2,Pin_2*%
%TO.N,Net-(JIN1-Pin_2)*%
X140106400Y-71526400D03*
%TO.P,JOUT1,3,Pin_3*%
%TO.N,Net-(JOUT1-Pin_3)*%
X137566400Y-71526400D03*
%TO.P,JOUT1,4,Pin_4*%
%TO.N,GND*%
X135026400Y-71526400D03*
%TD*%
D12*
%TO.P,JIN1,1,Pin_1*%
%TO.N,+5V*%
X142900400Y-90728800D03*
D10*
%TO.P,JIN1,2,Pin_2*%
%TO.N,Net-(JIN1-Pin_2)*%
X140360400Y-90728800D03*
%TO.P,JIN1,3,Pin_3*%
%TO.N,unconnected-(JIN1-Pin_3-Pad3)*%
X137820400Y-90728800D03*
%TO.P,JIN1,4,Pin_4*%
%TO.N,GND*%
X135280400Y-90728800D03*
%TD*%
D15*
%TO.N,+5V*%
X142646000Y-72678300D02*
X142646000Y-71526400D01*
X142900000Y-90728800D02*
X142900000Y-90152800D01*
X131250700Y-102378100D02*
X142900000Y-90728800D01*
X141453000Y-82944600D02*
X141453100Y-82944500D01*
X142646400Y-71526400D02*
X142646000Y-71526400D01*
X130098800Y-112776000D02*
X131250700Y-112776000D01*
X141453000Y-88129600D02*
X141453000Y-82944600D01*
X142900000Y-89576900D02*
X141453000Y-88129600D01*
X141453000Y-82944600D02*
X141453000Y-73871600D01*
X131250700Y-112776000D02*
X131250700Y-102378100D01*
X141453100Y-82944500D02*
X141453100Y-82150300D01*
X142900000Y-90152800D02*
X142900000Y-89576900D01*
X142900000Y-90152800D02*
X142900400Y-90153200D01*
X142900400Y-90153200D02*
X142900400Y-90728800D01*
X141453000Y-73871600D02*
X142646000Y-72678300D01*
%TO.N,Net-(JIN1-Pin_2)*%
X138901000Y-78595300D02*
X138901000Y-73884100D01*
X140360000Y-90728800D02*
X140360000Y-90152800D01*
X140360000Y-89576900D02*
X140183000Y-89399600D01*
X140106400Y-72101900D02*
X140106400Y-71526400D01*
X140183000Y-79877800D02*
X138901000Y-78595300D01*
X140360000Y-90152800D02*
X140360400Y-90153200D01*
X140183000Y-89399600D02*
X140183000Y-79877800D01*
X140106000Y-72102300D02*
X140106400Y-72101900D01*
X140106000Y-72678300D02*
X140106000Y-72102300D01*
X140106000Y-72102300D02*
X140106000Y-71526400D01*
X140360400Y-90153200D02*
X140360400Y-90728800D01*
X138901000Y-73884100D02*
X140106000Y-72678300D01*
X140360000Y-90152800D02*
X140360000Y-89576900D01*
%TO.N,GND*%
X136373000Y-85317200D02*
X136373000Y-82150300D01*
X135280400Y-90728800D02*
X135280000Y-90728800D01*
X136373000Y-85317200D02*
X136373100Y-85317100D01*
X136373000Y-88484200D02*
X136373000Y-85317200D01*
X135280000Y-89576900D02*
X136373000Y-88484200D01*
X136373100Y-85317100D02*
X136373100Y-82150300D01*
X135280000Y-90728800D02*
X135280000Y-89576900D01*
%TO.N,Net-(JOY1-Pin_1)*%
X135026000Y-77385500D02*
X135026000Y-77961500D01*
X135026000Y-77385500D02*
X135026400Y-77385100D01*
X131251000Y-81737200D02*
X131251000Y-94996000D01*
X130099000Y-94996000D02*
X130098800Y-94996000D01*
X135026400Y-77385100D02*
X135026400Y-76809600D01*
X135026000Y-76809600D02*
X135026000Y-77385500D01*
X135026000Y-77961500D02*
X131251000Y-81737200D01*
X131251000Y-94996000D02*
X130099000Y-94996000D01*
%TO.N,Net-(Pico1-GPIO2)*%
X144424000Y-103620000D02*
X145216000Y-103620000D01*
X146727000Y-105131000D02*
X146727000Y-107696000D01*
X147879000Y-107696000D02*
X147878800Y-107696000D01*
X144424000Y-103044500D02*
X144424000Y-103620000D01*
X146727000Y-107696000D02*
X147878800Y-107696000D01*
X144424000Y-102469000D02*
X144424000Y-103044500D01*
X145216000Y-103620000D02*
X146727000Y-105131000D01*
X144424000Y-103044500D02*
X144424400Y-103044100D01*
X144424400Y-103044100D02*
X144424400Y-102468600D01*
%TD*%
M02*
